<?xml version="1.0" encoding="UTF-8" standalone="no"?>
<!-- Created with Inkscape (http://www.inkscape.org/) -->

<svg
   xmlns:dc="http://purl.org/dc/elements/1.1/"
   xmlns:cc="http://creativecommons.org/ns#"
   xmlns:rdf="http://www.w3.org/1999/02/22-rdf-syntax-ns#"
   xmlns:svg="http://www.w3.org/2000/svg"
   xmlns="http://www.w3.org/2000/svg"
   xmlns:sodipodi="http://sodipodi.sourceforge.net/DTD/sodipodi-0.dtd"
   xmlns:inkscape="http://www.inkscape.org/namespaces/inkscape"
   id="svg4020"
   sodipodi:docname="logo.svg"
   inkscape:export-filename="/Users/lmproulx/Desktop/isotype/boite ouverte.png"
   viewBox="0 0 183.57665 171.61025"
   sodipodi:version="0.32"
   inkscape:export-xdpi="300"
   version="1.0"
   inkscape:output_extension="org.inkscape.output.svg.inkscape"
   inkscape:export-ydpi="300"
   inkscape:version="0.92.4 (5da689c313, 2019-01-14)"
   width="183.57664"
   height="171.61026">
  <defs
     id="defs4586" />
  <sodipodi:namedview
     id="base"
     bordercolor="#666666"
     inkscape:pageshadow="2"
     inkscape:window-y="0"
     pagecolor="#ffffff"
     inkscape:window-height="1335"
     inkscape:zoom="3.959798"
     inkscape:window-x="0"
     showgrid="false"
     borderopacity="1.0"
     inkscape:current-layer="text4668"
     inkscape:cx="83.303013"
     inkscape:cy="91.605499"
     inkscape:window-width="2554"
     inkscape:pageopacity="0.0"
     inkscape:document-units="px"
     inkscape:window-maximized="0"
     fit-margin-top="0"
     fit-margin-left="0"
     fit-margin-right="0"
     fit-margin-bottom="0" />
  <g
     id="layer1"
     inkscape:label="Calque 1"
     inkscape:groupmode="layer"
     transform="translate(-18.362197,-872.33868)">
    <g
       id="g4576">
      <path
         id="path3263"
         style="fill:#3a3a3a;fill-opacity:1;stroke:#000000;stroke-width:2.09800005;stroke-linecap:round;stroke-linejoin:round"
         d="m 55.424,1006.2 53.666,36.7 2.82,-76.26 -55.074,-35.29 z"
         inkscape:export-ydpi="84.154686"
         sodipodi:nodetypes="ccccc"
         inkscape:export-filename="/Users/lmproulx/Desktop/isotype/text3279.png"
         inkscape:export-xdpi="84.154686"
         inkscape:connector-curvature="0" />
      <path
         id="path3265"
         style="fill:#3a3a3a;fill-opacity:1;stroke:#000000;stroke-width:2.09800005;stroke-linecap:round;stroke-linejoin:round"
         d="m 110.5,965.23 56.49,-29.65 v 80.52 l -57.9,26.8 z"
         inkscape:export-ydpi="84.154686"
         sodipodi:nodetypes="ccccc"
         inkscape:export-filename="/Users/lmproulx/Desktop/isotype/text3279.png"
         inkscape:export-xdpi="84.154686"
         inkscape:connector-curvature="0" />
      <path
         id="path3267"
         style="fill:#888888;fill-opacity:1;stroke:#000000;stroke-width:2.09800005;stroke-linecap:round;stroke-linejoin:round"
         d="m 55.424,929.93 53.666,35.3 58.61,-27.53 -51.55,-33.18 z"
         inkscape:export-ydpi="84.154686"
         sodipodi:nodetypes="ccccc"
         inkscape:export-filename="/Users/lmproulx/Desktop/isotype/text3279.png"
         inkscape:export-xdpi="84.154686"
         inkscape:connector-curvature="0" />
      <path
         id="path3269"
         style="fill:#5f5f5f;fill-opacity:1;stroke:#000000;stroke-width:2.20349503;stroke-linecap:round;stroke-linejoin:round"
         d="M 115.75,904.62 98.397605,873.44039 24.653,908.42318 57.603915,931.35 Z"
         inkscape:export-ydpi="84.154686"
         sodipodi:nodetypes="ccccc"
         inkscape:export-filename="/Users/lmproulx/Desktop/isotype/text3279.png"
         inkscape:export-xdpi="84.154686"
         inkscape:connector-curvature="0" />
      <path
         id="path3271"
         style="fill:#5f5f5f;fill-opacity:1;stroke:#000000;stroke-width:2.09800005;stroke-linecap:round;stroke-linejoin:round"
         d="m 58.954,932.05 -39.543,4.94 67.789,43.07 23.2,-15.44 z"
         inkscape:export-ydpi="84.154686"
         sodipodi:nodetypes="ccccc"
         inkscape:export-filename="/Users/lmproulx/Desktop/isotype/text3279.png"
         inkscape:export-xdpi="84.154686"
         inkscape:connector-curvature="0" />
      <path
         id="path3273"
         style="fill:#5f5f5f;fill-opacity:1;stroke:#000000;stroke-width:2.09800005;stroke-linecap:round;stroke-linejoin:round"
         d="m 115.75,904.62 19.47,-23.5 57.5,37.72 -27.14,18.15 z"
         inkscape:export-ydpi="84.154686"
         sodipodi:nodetypes="ccccc"
         inkscape:export-filename="/Users/lmproulx/Desktop/isotype/text3279.png"
         inkscape:export-xdpi="84.154686"
         inkscape:connector-curvature="0" />
      <path
         id="path3275"
         style="fill:#5f5f5f;fill-opacity:1;stroke:#000000;stroke-width:2.09800005;stroke-linecap:round;stroke-linejoin:round"
         d="m 109.09,965.23 56.49,-28.24 35.31,12.71 -64.97,35.3 z"
         inkscape:export-ydpi="84.154686"
         inkscape:export-filename="/Users/lmproulx/Desktop/isotype/text3279.png"
         inkscape:export-xdpi="84.154686"
         inkscape:connector-curvature="0" />
      <g
         id="g4664"
         transform="matrix(0.6479158,-0.47215715,0.47215715,0.6479158,54.638199,990.13527)"
         style="fill:#ffffff;fill-opacity:1">
        <path
           id="path4645"
           d="m 83.072,74.15 -3.303,3.469 c 0.443,0.66 0.671,1.433 0.648,2.23 -0.026,0.976 -0.427,1.876 -1.128,2.534 -0.714,0.679 -1.668,1.027 -2.666,0.98 -0.95,-0.045 -1.844,-0.441 -2.529,-1.119 l -9.986,9.041 c -0.017,0.015 -0.036,0.02 -0.054,0.032 0.94,0.929 2.009,1.807 3.14,2.66 0.568,0.247 1.118,0.492 1.701,0.739 5.185,0.799 9.38,-0.964 12.707,-4.949 0.822,-1.934 1.685,-3.854 2.529,-5.775 0.469,-3.607 -0.138,-6.787 -1.059,-9.842 z"
           inkscape:connector-curvature="0"
           style="fill:#ffffff;fill-opacity:1" />
        <path
           id="path4647"
           d="m 20.897,17.406 5.457,-0.412 C 24.04,14.798 19.738,10.746 19.333,10.56 15.859,11.544 8.711,13.083 8.67,13.196 c 3.038,3.353 6.391,6.576 9.049,10.073 l 2.591,-5.46 c 0.109,-0.23 0.334,-0.384 0.587,-0.403 z"
           inkscape:connector-curvature="0"
           style="fill:#ffffff;fill-opacity:1" />
        <path
           id="path4649"
           d="m 82.204,73.007 c 0.061,-0.062 0.132,-0.107 0.206,-0.144 -1.552,-2.404 -3.625,-4.611 -4.847,-7.146 -0.613,-0.358 -0.912,0.058 -1.506,-0.261 0.134,-1.188 -0.128,-2.034 -1.593,-1.906 0.357,-0.609 -0.047,-0.927 0.251,-1.506 -1.763,0.241 -1.093,-0.968 -2.075,-1.727 0.302,-0.922 -0.794,0.205 -1.353,-0.584 0.778,-1.681 -0.398,-1.516 -1.598,-1.926 1.489,-2.322 -2.41,-0.802 -1.138,-2.938 -0.586,-0.277 -1.088,-0.38 -1.512,-0.254 -0.143,-0.6 -0.614,-1.066 -0.422,-1.803 -0.613,-0.36 -0.912,0.047 -1.506,-0.249 0.906,-2.164 -2.145,-1.03 -1.48,-3.087 C 62.315,49.051 61.29,48.505 61.695,47.409 60.768,47.268 59.65,47.335 60.298,45.992 59.455,45.29 59.21,46.079 58.451,45.583 58.487,44.999 58.323,44.509 58.353,43.923 57.36,44.091 56.199,43.783 55.676,43.249 54.193,41.732 34.445,21.55 30.372,17.875 c -0.118,0.165 -8.96,0.912 -8.96,0.912 0,0 -3.496,7.268 -3.593,7.336 2.944,3.595 6.135,7.071 9.293,10.562 0.553,1.806 1.032,3.272 1.757,5.231 1.583,0.695 3.166,1.389 4.754,2.085 3.685,3.54 6.65,7.359 10.191,10.951 3.145,3.837 7.336,7.265 9.042,11.672 0.814,0.338 0.747,1.029 1.891,1.234 -0.098,0.502 0.201,0.86 -0.251,1.5 1.86,0.312 1.255,1.579 1.297,2.604 0.906,0.43 0.926,-0.266 1.358,0.589 -1.046,1.353 0.502,1.681 0.951,2.444 -0.29,0.583 -0.388,1.087 -0.26,1.516 1.133,0.303 1.378,0.959 0.756,1.943 0.231,0.671 1.602,0.88 1.258,1.772 -0.346,0.43 -0.658,0.398 -0.451,1.023 0.619,0.63 1.671,0.508 0.619,2.285 0.226,0.667 1.604,0.876 1.246,1.763 -0.15,0.344 -0.298,0.687 -0.451,1.025 0.421,1.459 1.233,2.766 2.285,3.979 0.019,-0.022 0.028,-0.05 0.051,-0.069 l 10.503,-9.509 c 0.287,-0.261 0.73,-0.24 0.995,0.044 l 0.385,0.415 c 0.438,0.46 1.026,0.733 1.651,0.764 0.631,0.018 1.191,-0.184 1.625,-0.596 0.427,-0.4 0.669,-0.947 0.686,-1.543 0.018,-0.643 -0.226,-1.262 -0.685,-1.743 -0.261,-0.273 -0.262,-0.704 -0.001,-0.978 z M 48.65,49.17 c -1.151,0.549 -2.598,0.312 -3.548,-0.697 L 26.284,28.623 c -1.174,-1.24 -1.153,-3.172 0.025,-4.291 1.203,-1.127 3.115,-1.041 4.298,0.205 L 49.412,44.39 c 0.868,0.921 1.084,2.216 0.655,3.286 z"
           inkscape:connector-curvature="0"
           style="fill:#ffffff;fill-opacity:1"
           sodipodi:nodetypes="cccccccccccccccccccccccccccccccccccccccccccccccccccccccccc" />
      </g>
      <g
         aria-label="misas"
         transform="rotate(13.47852)"
         style="font-style:normal;font-variant:normal;font-weight:normal;font-stretch:normal;font-size:10.66666698px;line-height:1.25;font-family:Hack;-inkscape-font-specification:'Hack, Normal';font-variant-ligatures:normal;font-variant-caps:normal;font-variant-numeric:normal;font-feature-settings:normal;text-align:start;letter-spacing:0px;word-spacing:0px;writing-mode:lr-tb;text-anchor:start;fill:#343434;fill-opacity:1;stroke:none"
         id="text4668">
        <path
           d="m 340.25954,942.52806 h 0.78646 l 0.0833,0.5 q 0.35417,-0.64063 1.04688,-0.64063 0.74479,0 1.03646,0.73438 0.35416,-0.73438 1.11458,-0.73438 0.70833,0 0.98958,0.53125 0.28646,0.54688 0.28646,2.0625 v 3.38021 h -0.875 v -3.33854 q 0,-0.65625 -0.0365,-1.01563 -0.0312,-0.35937 -0.10416,-0.53125 -0.13021,-0.28646 -0.51563,-0.28646 -0.39583,0 -0.54687,0.3125 -0.0885,0.1823 -0.125,0.53125 -0.0365,0.34896 -0.0365,0.98959 v 3.33854 h -0.875 v -3.33854 q 0,-0.63021 -0.0365,-1 -0.0365,-0.36979 -0.11458,-0.54167 -0.14063,-0.29167 -0.52604,-0.29167 -0.38542,0 -0.52605,0.3073 -0.0833,0.17708 -0.11979,0.54166 -0.0365,0.35938 -0.0365,0.98438 v 3.33854 h -0.86979 z"
           style="font-style:normal;font-variant:normal;font-weight:normal;font-stretch:normal;font-size:10.66666698px;font-family:Hack;-inkscape-font-specification:'Hack, Normal';font-variant-ligatures:normal;font-variant-caps:normal;font-variant-numeric:normal;font-feature-settings:normal;text-align:start;writing-mode:lr-tb;text-anchor:start;fill:#343434;fill-opacity:1"
           id="path4689" />
        <path
           d="m 348.83767,941.47076 q -0.15625,0 -0.15625,-0.15625 v -0.90104 q 0,-0.15625 0.15625,-0.15625 h 0.75 q 0.15625,0 0.15625,0.15625 v 0.90104 q 0,0.15625 -0.15625,0.15625 z m 1.75,6.9323 q -0.85938,0 -1.33334,-0.55209 -0.46875,-0.55729 -0.46875,-1.5625 v -3.01041 h -1.27604 v -0.75 h 2.23438 v 3.76041 q 0,0.63542 0.23958,0.96875 0.23958,0.33334 0.69792,0.33334 h 1.11979 v 0.8125 z"
           style="font-style:normal;font-variant:normal;font-weight:normal;font-stretch:normal;font-size:10.66666698px;font-family:Hack;-inkscape-font-specification:'Hack, Normal';font-variant-ligatures:normal;font-variant-caps:normal;font-variant-numeric:normal;font-feature-settings:normal;text-align:start;writing-mode:lr-tb;text-anchor:start;fill:#343434;fill-opacity:1"
           id="path4691" />
        <path
           d="m 355.60329,948.51243 q -0.83333,0 -1.95833,-0.36458 v -0.98959 q 1.09375,0.55209 1.94792,0.55209 0.60937,0 0.97395,-0.25521 0.36459,-0.25521 0.36459,-0.68229 0,-0.36979 -0.30729,-0.59375 -0.30209,-0.22917 -0.96875,-0.36979 l -0.40105,-0.0833 q -0.82291,-0.16666 -1.20833,-0.54687 -0.38021,-0.38542 -0.38021,-1.04688 0,-0.83854 0.57292,-1.29166 0.57292,-0.45313 1.63021,-0.45313 0.89583,0 1.73437,0.34375 v 0.9375 q -0.81771,-0.47917 -1.70833,-0.47917 -1.26042,0 -1.26042,0.85938 0,0.28125 0.10938,0.44792 0.10937,0.16145 0.41666,0.27604 0.3073,0.10937 0.90625,0.22916 l 0.38542,0.0729 q 1.44792,0.28646 1.44792,1.57813 0,0.86458 -0.61459,1.36458 -0.61458,0.49479 -1.68229,0.49479 z"
           style="font-style:normal;font-variant:normal;font-weight:normal;font-stretch:normal;font-size:10.66666698px;font-family:Hack;-inkscape-font-specification:'Hack, Normal';font-variant-ligatures:normal;font-variant-caps:normal;font-variant-numeric:normal;font-feature-settings:normal;text-align:start;writing-mode:lr-tb;text-anchor:start;fill:#343434;fill-opacity:1"
           id="path4693" />
        <path
           d="m 361.6085,948.51243 q -0.84375,0 -1.39583,-0.48437 -0.54688,-0.48959 -0.54688,-1.40105 0,-0.7552 0.36459,-1.17708 0.36458,-0.42708 0.95312,-0.59896 0.58854,-0.17187 1.25521,-0.17187 h 1.28646 v -0.15104 q 0,-0.7448 -0.38021,-1.03646 -0.375,-0.29167 -1.05729,-0.29167 -0.53125,0 -1.04167,0.14583 -0.51042,0.14584 -0.95312,0.40625 v -0.95833 q 0.47916,-0.17708 0.96875,-0.29167 0.48958,-0.11458 1,-0.11458 0.52083,0 1.01041,0.14583 0.49479,0.14063 0.85417,0.46875 0.35937,0.32292 0.47917,0.8698 0.0833,0.38541 0.0833,1.16145 v 1.19271 q 0,0.48959 0.0521,1.08334 0.0573,0.59375 0.25521,1.05208 h -0.96354 q -0.0885,-0.20313 -0.14063,-0.43229 -0.0521,-0.23438 -0.0833,-0.45313 -0.30729,0.52604 -0.85417,0.78125 -0.54166,0.25521 -1.14583,0.25521 z m 0.23438,-0.80208 q 0.59375,0 0.96354,-0.29167 0.375,-0.29167 0.54687,-0.76042 0.17188,-0.47395 0.17188,-1.01562 v -0.21354 h -1.21354 q -0.40625,0 -0.79688,0.0937 -0.38542,0.0885 -0.64062,0.34375 -0.25,0.25521 -0.25,0.74479 0,0.55208 0.33854,0.82812 0.33854,0.27084 0.88021,0.27084 z"
           style="font-style:normal;font-variant:normal;font-weight:normal;font-stretch:normal;font-size:10.66666698px;font-family:Hack;-inkscape-font-specification:'Hack, Normal';font-variant-ligatures:normal;font-variant-caps:normal;font-variant-numeric:normal;font-feature-settings:normal;text-align:start;writing-mode:lr-tb;text-anchor:start;fill:#343434;fill-opacity:1"
           id="path4695" />
        <path
           d="m 368.44704,948.51243 q -0.83333,0 -1.95833,-0.36458 v -0.98959 q 1.09375,0.55209 1.94792,0.55209 0.60937,0 0.97395,-0.25521 0.36459,-0.25521 0.36459,-0.68229 0,-0.36979 -0.30729,-0.59375 -0.30209,-0.22917 -0.96875,-0.36979 l -0.40105,-0.0833 q -0.82291,-0.16666 -1.20833,-0.54687 -0.38021,-0.38542 -0.38021,-1.04688 0,-0.83854 0.57292,-1.29166 0.57292,-0.45313 1.63021,-0.45313 0.89583,0 1.73437,0.34375 v 0.9375 q -0.81771,-0.47917 -1.70833,-0.47917 -1.26042,0 -1.26042,0.85938 0,0.28125 0.10938,0.44792 0.10937,0.16145 0.41666,0.27604 0.3073,0.10937 0.90625,0.22916 l 0.38542,0.0729 q 1.44792,0.28646 1.44792,1.57813 0,0.86458 -0.61459,1.36458 -0.61458,0.49479 -1.68229,0.49479 z"
           style="font-style:normal;font-variant:normal;font-weight:normal;font-stretch:normal;font-size:10.66666698px;font-family:Hack;-inkscape-font-specification:'Hack, Normal';font-variant-ligatures:normal;font-variant-caps:normal;font-variant-numeric:normal;font-feature-settings:normal;text-align:start;writing-mode:lr-tb;text-anchor:start;fill:#343434;fill-opacity:1"
           id="path4697" />
      </g>
    </g>
  </g>
  <metadata
     id="metadata4583">
    <rdf:RDF>
      <cc:Work>
        <dc:format>image/svg+xml</dc:format>
        <dc:type
           rdf:resource="http://purl.org/dc/dcmitype/StillImage" />
        <cc:license
           rdf:resource="http://creativecommons.org/publicdomain/zero/1.0/" />
        <dc:publisher>
          <cc:Agent
             rdf:about="http://openclipart.org/">
            <dc:title>Openclipart</dc:title>
          </cc:Agent>
        </dc:publisher>
        <dc:title></dc:title>
        <dc:date>2010-02-01T02:59:44</dc:date>
        <dc:description />
        <dc:source>https://openclipart.org/detail/29155/open-box-/-boite-ouverte-by-lmproulx-29155</dc:source>
        <dc:creator>
          <cc:Agent>
            <dc:title>lmproulx</dc:title>
          </cc:Agent>
        </dc:creator>
        <dc:subject>
          <rdf:Bag>
            <rdf:li>unchecked</rdf:li>
          </rdf:Bag>
        </dc:subject>
      </cc:Work>
      <cc:License
         rdf:about="http://creativecommons.org/publicdomain/zero/1.0/">
        <cc:permits
           rdf:resource="http://creativecommons.org/ns#Reproduction" />
        <cc:permits
           rdf:resource="http://creativecommons.org/ns#Distribution" />
        <cc:permits
           rdf:resource="http://creativecommons.org/ns#DerivativeWorks" />
      </cc:License>
    </rdf:RDF>
  </metadata>
</svg>
